<?xml version="1.0" encoding="UTF-8"?>
<svg id="Layer_2" data-name="Layer 2" xmlns="http://www.w3.org/2000/svg" viewBox="0 0 770.86 141.99">
  <defs>
    <style>
      .cls-1 {
        fill: #0c0e12;
      }

      .cls-2 {
        fill: #acff55;
      }
    </style>
  </defs>
  <g id="Layer_1" data-name="Layer 1">
    <g id="Limeeo_-_black_logo_2026">
      <path class="cls-1" d="M261.96,128c0,6.63-5.38,12-12,12h-46.38c-1.16,0-2.3-.07-3.42-.22-12.41-1.53-22.25-11.37-23.78-23.78-.15-1.12-.22-2.26-.22-3.42V12c0-6.63,5.37-12,12-12s12,5.37,12,12v92c0,6.63,5.37,12,12,12h37.8c6.62,0,12,5.37,12,12ZM281.3,37.96c-6.63,0-12,5.37-12,12v78.04c0,6.63,5.37,12,12,12s12-5.37,12-12V49.96c0-6.63-5.38-12-12-12ZM293.31,7.09c-2.34-4.23-6.83-7.09-12-7.09s-9.66,2.85-12,7.07c-1.09,1.96-1.71,4.23-1.71,6.64s.62,4.68,1.71,6.64c2.34,4.22,6.83,7.07,12,7.07s9.66-2.86,12-7.09c1.08-1.96,1.7-4.21,1.7-6.62s-.62-4.66-1.7-6.62ZM412.84,41.31c-4.91-2.16-10.34-3.35-16.05-3.35s-11.14,1.19-16.05,3.35c-4.49,1.96-8.55,4.73-12,8.12-3.45-3.39-7.51-6.16-12-8.12-4.91-2.16-10.34-3.35-16.05-3.35s-11.14,1.19-16.05,3.35c-14.12,6.18-24,20.29-24,36.7v49.99c0,6.63,5.38,12,12,12s12-5.37,12-12v-51.95c0-8.86,7.19-16.05,16.05-16.05s16.05,7.19,16.05,16.05v51.95c0,6.63,5.38,12,12,12s12-5.37,12-12v-51.95c0-8.86,7.19-16.05,16.05-16.05s16.05,7.19,16.05,16.05v51.95c0,6.63,5.38,12,12,12s12-5.37,12-12v-49.99c0-16.41-9.87-30.52-24-36.7ZM472.87,97.48c-2.98,0-4.9,3.13-3.58,5.8,4.9,9.9,15.11,16.7,26.89,16.7,11.1,0,20.79-6.03,25.96-14.99h23.84c-6.44,21.41-26.3,37-49.8,37-26.18,0-47.83-19.34-51.46-44.51-.36-2.44-.54-4.95-.54-7.49,0-4.42.55-8.7,1.59-12.8,5.7-22.53,26.11-39.2,50.41-39.2s44.71,16.67,50.41,39.2c1.04,4.1,1.59,8.38,1.59,12.8,0,2.54-.18,5.05-.54,7.49h-74.77ZM473.3,70.62c-2.19,2.59-.32,6.57,3.07,6.57h39.63c3.4,0,5.27-3.98,3.07-6.57-5.5-6.49-13.71-10.62-22.89-10.62s-17.39,4.12-22.89,10.62ZM584.21,97.48c-2.98,0-4.9,3.13-3.58,5.8,4.9,9.9,15.11,16.7,26.89,16.7,11.1,0,20.79-6.03,25.96-14.99h23.84c-6.44,21.41-26.3,37-49.8,37-26.18,0-47.83-19.34-51.46-44.51-.36-2.44-.54-4.95-.54-7.49,0-4.42.55-8.7,1.59-12.8,5.7-22.53,26.11-39.2,50.41-39.2s44.71,16.67,50.41,39.2c1.04,4.1,1.59,8.38,1.59,12.8,0,2.54-.18,5.05-.54,7.49h-74.77ZM584.64,70.62c-2.19,2.59-.32,6.57,3.07,6.57h39.63c3.4,0,5.27-3.98,3.07-6.57-5.5-6.49-13.71-10.62-22.89-10.62s-17.39,4.12-22.89,10.62ZM770.86,89.99c0,28.72-23.28,52-52,52s-52-23.28-52-52,23.28-52,52-52,52,23.28,52,52ZM747.96,89.99c0-16.07-13.03-29.1-29.1-29.1s-29.1,13.03-29.1,29.1,13.03,29.1,29.1,29.1,29.1-13.03,29.1-29.1Z"/>
      <path class="cls-2" d="M137.79,105.28l-33.98-33.98c-2.57-2.57-6.98-.75-6.98,2.89v26.34c0,3.94-3.19,7.13-7.13,7.13-3.94,0-7.13-3.19-7.13-7.13v-21.17c0-3.64-4.4-5.46-6.98-2.89l-31.29,31.29c-2.76,2.76-7.3,3.04-10.14.36-2.94-2.77-2.99-7.4-.16-10.24l31.5-31.5c2.57-2.57.75-6.98-2.89-6.98h-21.17c-4.01,0-7.25-3.31-7.13-7.35s3.52-6.91,7.43-6.91h26.04c3.64,0,5.46-4.4,2.89-6.98L36.71,4.2C30.37-2.14,19.77-1.18,14.77,6.27,5.17,20.55-.32,37.84.01,56.42c.84,46.65,38.91,84.72,85.56,85.55,18.58.33,35.86-5.15,50.15-14.76,7.44-5,8.41-15.6,2.07-21.94Z"/>
    </g>
  </g>
</svg>